# xmcd CD database file
#
# Track frame offsets:
#	150
#	20325
#	39519
#	60819
#	77119
#	96469
#	110569
#	132746
#	151921
#	171377
#	194350
#	214225
#	233125
#	252175
#
# Disc length: 3537 seconds
#
# Revision: 0
# Processed by: cddbd v1.5.2PL0 Copyright (c) Steve Scherf et al.
# Submitted via: CDex 1.70beta2
#
DISCID=bf0dcf0e
DTITLE=Laszlo Spiro - Orlando Ribar Group - Stand-Arts
DYEAR=2013
DGENRE=Jazz
TTITLE0=All the Things
TTITLE1=Australia
TTITLE2=Circling
TTITLE3=Countdown
TTITLE4=Dies Irae
TTITLE5=How High the Moon
TTITLE6=Invitation
TTITLE7=Lawns
TTITLE8=Night and Day
TTITLE9=Quiet Nights
TTITLE10=Solar
TTITLE11=Still There
TTITLE12=There is no greater Love
TTITLE13=Yesterday
EXTD=YEAR: 2013
EXTT0=
EXTT1=
EXTT2=
EXTT3=
EXTT4=
EXTT5=
EXTT6=
EXTT7=
EXTT8=
EXTT9=
EXTT10=
EXTT11=
EXTT12=
EXTT13=
PLAYORDER=
